<svg width="60" height="60" viewBox="0 0 60 60" fill="none" xmlns="http://www.w3.org/2000/svg">
<path d="M15 17L15.5 43C14.7 45.4 17.5 46.6667 19 47L36.5 46.5L45.5 38V17C45.5 14.6 43.1667 13.3333 42 13H19.5C15.9 13 15 15.6667 15 17Z" fill="#E7F4FD"/>
<path d="M23.0005 25.6231H20.3625C20.1024 25.6231 19.8529 25.7264 19.669 25.9103C19.4851 26.0942 19.3818 26.3437 19.3818 26.6037V33.6096C19.3818 33.8697 19.4851 34.1192 19.669 34.3031C19.8529 34.487 20.1024 34.5903 20.3625 34.5903C20.6225 34.5903 20.872 34.487 21.0559 34.3031C21.2398 34.1192 21.3431 33.8697 21.3431 33.6096V31.0933H23.0005C23.7263 31.0896 24.4212 30.7987 24.9332 30.2842C25.4452 29.7696 25.7326 29.0733 25.7326 28.3474C25.7355 27.9882 25.6667 27.632 25.5304 27.2996C25.394 26.9673 25.1927 26.6654 24.9383 26.4118C24.6839 26.1581 24.3815 25.9577 24.0488 25.8223C23.7161 25.6869 23.3597 25.6192 23.0005 25.6231ZM23.0005 29.126H21.3431V27.5844H23.0005C23.1023 27.582 23.2037 27.6003 23.2983 27.6382C23.3929 27.676 23.4788 27.7327 23.5509 27.8048C23.6229 27.8769 23.6796 27.9628 23.7175 28.0574C23.7554 28.152 23.7737 28.2533 23.7713 28.3552C23.772 28.4569 23.7527 28.5578 23.7143 28.652C23.6759 28.7462 23.6192 28.8319 23.5476 28.9041C23.4759 28.9763 23.3907 29.0336 23.2968 29.0727C23.2029 29.1118 23.1022 29.1319 23.0005 29.1319V29.126ZM30.736 25.6113H28.0882C27.8281 25.6113 27.5786 25.7146 27.3947 25.8985C27.2108 26.0825 27.1075 26.3319 27.1075 26.592V33.6195C27.1075 33.8795 27.2108 34.129 27.3947 34.3129C27.5786 34.4968 27.8281 34.6001 28.0882 34.6001H30.736C31.0966 34.6001 31.4536 34.5291 31.7868 34.3911C32.1199 34.2531 32.4226 34.0509 32.6776 33.7959C32.9326 33.5409 33.1348 33.2382 33.2728 32.905C33.4108 32.5719 33.4818 32.2148 33.4818 31.8542V28.3474C33.4792 27.6208 33.1888 26.9249 32.6741 26.4121C32.1595 25.8993 31.4625 25.6113 30.736 25.6113ZM31.5205 31.8621C31.5205 32.0702 31.4379 32.2697 31.2907 32.4168C31.1436 32.564 30.944 32.6466 30.736 32.6466H29.0688V27.5726H30.736C30.944 27.5726 31.1436 27.6553 31.2907 27.8024C31.4379 27.9496 31.5205 28.1491 31.5205 28.3572V31.8621ZM41.2546 26.592C41.2546 26.8521 41.1513 27.1015 40.9674 27.2854C40.7835 27.4693 40.534 27.5726 40.274 27.5726H36.8436V29.1319H39.1168C39.3769 29.1319 39.6263 29.2352 39.8102 29.4191C39.9941 29.6031 40.0974 29.8525 40.0974 30.1126C40.0974 30.3727 39.9941 30.6221 39.8102 30.806C39.6263 30.9899 39.3769 31.0933 39.1168 31.0933H36.8436V33.6253C36.8436 33.8854 36.7403 34.1349 36.5563 34.3188C36.3724 34.5027 36.123 34.606 35.8629 34.606C35.6028 34.606 35.3534 34.5027 35.1695 34.3188C34.9856 34.1349 34.8822 33.8854 34.8822 33.6253V26.592C34.8822 26.3319 34.9856 26.0825 35.1695 25.8985C35.3534 25.7146 35.6028 25.6113 35.8629 25.6113H40.2661C40.5262 25.6113 40.7756 25.7146 40.9596 25.8985C41.1435 26.0825 41.2468 26.3319 41.2468 26.592H41.2546ZM41.8313 12.235H18.7581C18.1366 12.2352 17.5212 12.358 16.9472 12.5963C16.3732 12.8345 15.8518 13.1836 15.4128 13.6235C14.9738 14.0634 14.6258 14.5855 14.3888 15.16C14.1517 15.7345 14.0302 16.3501 14.0313 16.9716V43.2535C14.0312 44.509 14.5286 45.7133 15.4145 46.6029C16.3004 47.4924 17.5026 47.9948 18.7581 48H36.3905C36.5522 47.9983 36.7111 47.9584 36.8543 47.8834C36.9975 47.8084 37.1209 47.7004 37.2143 47.5685L46.256 38.5267L46.3149 38.4679C46.3852 38.3954 46.4387 38.3083 46.4718 38.2129C46.5258 38.0962 46.5526 37.9688 46.5502 37.8403V16.9716C46.5513 16.3501 46.4298 15.7345 46.1927 15.16C45.9557 14.5855 45.6077 14.0634 45.1687 13.6235C44.7297 13.1836 44.2083 12.8345 43.6343 12.5963C43.0602 12.358 42.4449 12.2352 41.8234 12.235H41.8313ZM35.4177 41.5766V46.0288H18.7581C18.024 46.0252 17.3213 45.7313 16.8031 45.2114C16.285 44.6914 15.9936 43.9876 15.9926 43.2535V16.9716C15.9921 16.6083 16.0633 16.2485 16.2021 15.9127C16.3408 15.5769 16.5445 15.2719 16.8014 15.015C17.0583 14.7581 17.3634 14.5544 17.6992 14.4156C18.0349 14.2768 18.3948 14.2056 18.7581 14.2061H41.8234C42.1867 14.2056 42.5466 14.2768 42.8823 14.4156C43.2181 14.5544 43.5232 14.7581 43.7801 15.015C44.037 15.2719 44.2406 15.5769 44.3794 15.9127C44.5182 16.2485 44.5894 16.6083 44.5889 16.9716V36.8596H40.1563C38.9014 36.8559 37.6965 37.3508 36.8064 38.2354C35.9163 39.1199 35.414 40.3217 35.4098 41.5766H35.4177Z" fill="#0648BF"/>
</svg>
