<svg width="60" height="60" viewBox="0 0 60 60" fill="none" xmlns="http://www.w3.org/2000/svg">
<rect x="11" y="4" width="38" height="52" fill="#0C8CE9" fill-opacity="0.1"/>
<circle cx="29.5" cy="21.5" r="9.5" fill="#0C8CE9"/>
<circle cx="30" cy="20" r="3" fill="white"/>
<path d="M30.5 23C26.4689 23 23.5 25.3333 22 27C22.5 27.5 25.5 31 31 30.5C35.4 30.1 37.1667 27.6667 37.5 26.5C35.8333 25.3333 34.5 23 30.5 23Z" fill="white"/>
<path d="M10.8024 4C10.3593 4 10 4.35889 10 4.80241V56.1569C10 56.6004 10.3593 56.9593 10.8024 56.9593H49.1976C49.6407 56.9593 50 56.6004 50 56.1569V4.80241C50 4.35889 49.6407 4 49.1976 4H10.8024ZM48.3952 55.3545H11.6048V5.60483H48.3952V55.3545Z" fill="#0648BF"/>
<path d="M16.488 50.3464H43.5122C43.9553 50.3464 44.3146 49.9875 44.3146 49.544C44.3146 49.1005 43.9553 48.7416 43.5122 48.7416H16.488C16.0448 48.7416 15.6855 49.1005 15.6855 49.544C15.6855 49.9875 16.0448 50.3464 16.488 50.3464Z" fill="#0648BF"/>
<path d="M16.488 43.7109H38.2048C38.648 43.7109 39.0073 43.352 39.0073 42.9085C39.0073 42.465 38.648 42.1061 38.2048 42.1061H16.488C16.0448 42.1061 15.6855 42.465 15.6855 42.9085C15.6855 43.352 16.0448 43.7109 16.488 43.7109Z" fill="#0648BF"/>
<path d="M16.488 37.0753H41.2503C41.6935 37.0753 42.0527 36.7164 42.0527 36.2729C42.0527 35.8294 41.6935 35.4705 41.2503 35.4705H16.488C16.0448 35.4705 15.6855 35.8294 15.6855 36.2729C15.6855 36.7164 16.0448 37.0753 16.488 37.0753Z" fill="#0648BF"/>
<path d="M21.2825 27.3153C21.5994 27.7465 21.9405 28.1629 22.3261 28.5481C24.3098 30.5299 26.9462 31.6214 29.7503 31.6214H29.755C33.2025 31.62 36.2572 29.9416 38.1725 27.3677C38.2042 27.3284 38.238 27.2924 38.2614 27.2487C39.5107 25.5197 40.2555 23.4035 40.2546 21.1125C40.2522 15.3216 35.5404 10.6129 29.7503 10.6129H29.7456C23.954 10.6153 19.2441 15.3294 19.2461 21.1211C19.247 23.3566 19.9517 25.4791 21.2377 27.2552C21.25 27.277 21.268 27.2945 21.2825 27.3153ZM29.7543 30.0166H29.7503C27.3748 30.0166 25.1408 29.0919 23.4603 27.4127C23.2863 27.2389 23.1256 27.0555 22.9679 26.8703C24.6626 24.8589 27.0961 23.7054 29.7735 23.7054C32.3809 23.7054 34.8547 24.8865 36.5246 26.8737C34.8919 28.7922 32.4651 30.0152 29.7543 30.0166ZM29.7503 22.0998C28.4213 22.0998 27.3404 21.0192 27.3404 19.6902C27.3404 18.3612 28.4213 17.2798 29.7503 17.2798C31.0793 17.2798 32.1603 18.3612 32.1603 19.6902C32.1603 21.0192 31.0793 22.0998 29.7503 22.0998ZM29.7464 12.2177H29.7503C34.6553 12.2177 38.6478 16.2071 38.6498 21.1125C38.6504 22.713 38.2205 24.2124 37.4787 25.5118C36.1622 24.0708 34.4655 23.0427 32.5996 22.5134C33.3189 21.7875 33.7652 20.7904 33.7652 19.6902C33.7652 17.4765 31.964 15.675 29.7503 15.675C27.5367 15.675 25.7355 17.4765 25.7355 19.6902C25.7355 20.7864 26.1792 21.7795 26.8939 22.5047C25.0288 23.0265 23.3461 24.0489 22.015 25.5085C21.2609 24.1847 20.8517 22.6856 20.8509 21.1211C20.849 16.2141 24.8395 12.2201 29.7464 12.2177Z" fill="#0648BF"/>
</svg>
