<svg width="60" height="60" viewBox="0 0 60 60" fill="none" xmlns="http://www.w3.org/2000/svg">
<rect x="9" y="43" width="42" height="4" fill="#3895D9"/>
<path d="M50.881 42.2399H9.1204C8.7244 42.2399 8.40039 42.5639 8.40039 42.9599V47.2799C8.40039 47.6759 8.7244 48 9.1204 48H50.881C51.277 48 51.601 47.6759 51.601 47.2799V42.9599C51.601 42.5639 51.277 42.2399 50.881 42.2399ZM50.161 46.5599H9.84041V43.6799H50.161V46.5599Z" fill="#0648BF"/>
<path opacity="0.8" d="M34.3908 36.3988C34.7195 36.7833 35.2125 37 35.7339 37H47.3564C48.1951 37 48.9091 36.4421 49.0622 35.6675L50.9719 25.9175C51.0625 25.4517 50.9322 24.9696 50.6092 24.6012C50.2805 24.2166 49.7875 24 49.2661 24H37.6436C36.8049 24 36.0909 24.5579 35.9378 25.3325L34.0281 35.0825C33.9375 35.5483 34.0678 36.0304 34.3908 36.3988ZM42.5 27.25C44.3757 27.25 45.9001 28.7071 45.9001 30.5C45.9001 32.2929 44.3757 33.75 42.5 33.75C40.6243 33.75 39.0999 32.2929 39.0999 30.5C39.0999 28.7071 40.6243 27.25 42.5 27.25Z" fill="#0C8CE9"/>
<path d="M9.1204 37.1998H14.8805C15.2781 37.1998 15.6005 36.8774 15.6005 36.4798C15.6005 36.0822 15.2781 35.7598 14.8805 35.7598H9.1204C8.72278 35.7598 8.40039 36.0822 8.40039 36.4798C8.40039 36.8774 8.72278 37.1998 9.1204 37.1998Z" fill="#0648BF"/>
<path d="M26.4 35.7598H20.6399C20.2423 35.7598 19.9199 36.0822 19.9199 36.4798C19.9199 36.8774 20.2423 37.1998 20.6399 37.1998H26.4C26.7976 37.1998 27.12 36.8774 27.12 36.4798C27.12 36.0822 26.7976 35.7598 26.4 35.7598Z" fill="#0648BF"/>
<path d="M9.1204 32.8797H26.4007C26.7983 32.8797 27.1207 32.5573 27.1207 32.1597C27.1207 31.7621 26.7983 31.4397 26.4007 31.4397H9.1204C8.72278 31.4397 8.40039 31.7621 8.40039 32.1597C8.40039 32.5573 8.72278 32.8797 9.1204 32.8797Z" fill="#0648BF"/>
<path d="M14.4062 26.3417C14.543 26.4612 14.7121 26.5199 14.8801 26.5199C15.0805 26.5199 15.2799 26.4366 15.4223 26.2742C15.6842 25.9747 15.6539 25.5201 15.3548 25.2582L10.2138 20.7599L15.3548 16.2615C15.6539 15.9996 15.6842 15.5451 15.4223 15.2455C15.16 14.947 14.7058 14.9161 14.4062 15.178L8.64614 20.2181C8.49004 20.3549 8.40039 20.5521 8.40039 20.7599C8.40039 20.9676 8.49004 21.1649 8.64614 21.3016L14.4062 26.3417Z" fill="#0648BF"/>
<path d="M25.1392 26.2742C25.2816 26.4366 25.4809 26.5199 25.6813 26.5199C25.8494 26.5199 26.0185 26.4612 26.1552 26.3417L31.9153 21.3016C32.0714 21.1648 32.1611 20.9676 32.1611 20.7598C32.1611 20.552 32.0714 20.3548 31.9153 20.2181L26.1552 15.178C25.8557 14.9168 25.4011 14.9477 25.1392 15.2455C24.8773 15.545 24.9075 15.9996 25.2067 16.2615L30.3477 20.7598L25.2067 25.2581C24.9075 25.5201 24.8773 25.9746 25.1392 26.2742Z" fill="#0648BF"/>
<path d="M18.2028 26.4644C18.2935 26.5023 18.3874 26.5203 18.4795 26.5203C18.7614 26.5203 19.0293 26.3533 19.1443 26.0769L22.7444 17.4368C22.8973 17.0698 22.724 16.6482 22.3569 16.4953C21.9888 16.341 21.568 16.5164 21.4154 16.8827L17.8154 25.5229C17.6624 25.8899 17.8358 26.3114 18.2028 26.4644Z" fill="#0C8CE9"/>
<path d="M42.5 32C43.3284 32 44 31.3284 44 30.5C44 29.6716 43.3284 29 42.5 29C41.6716 29 41 29.6716 41 30.5C41 31.3284 41.6716 32 42.5 32Z" fill="#0C8CE9" fill-opacity="0.5"/>
</svg>
