<svg width="60" height="60" viewBox="0 0 60 60" fill="none" xmlns="http://www.w3.org/2000/svg">
<path d="M38 39L35 46.5L27.5 28L45.5 36L38 39Z" fill="#0C8CE9"/>
<rect x="12" y="43" width="4" height="4" fill="#0C8CE9"/>
<rect x="42" y="12" width="4" height="4" fill="#0C8CE9"/>
<path fill-rule="evenodd" clip-rule="evenodd" d="M42.2621 11.9991C42.0108 11.9992 41.7699 12.099 41.5922 12.2767C41.4145 12.4543 41.3147 12.6953 41.3147 12.9465V14.1819L26.1564 19.7967V18.6309C26.1563 18.3797 26.0565 18.1387 25.8789 17.961C25.7012 17.7834 25.4602 17.6835 25.209 17.6835H17.6298C17.3786 17.6835 17.1376 17.7834 16.9599 17.961C16.7823 18.1387 16.6824 18.3797 16.6824 18.6309V26.2101C16.6824 26.4613 16.7823 26.7023 16.9599 26.88C17.1376 27.0576 17.3786 27.1574 17.6298 27.1575H18.7956L13.1815 42.3158H11.9454C11.6942 42.3158 11.4532 42.4157 11.2756 42.5933C11.0979 42.771 10.9981 43.012 10.998 43.2632V47.0535C10.9981 47.3048 11.0979 47.5457 11.2756 47.7234C11.4532 47.9011 11.6942 48.0009 11.9454 48.0009H15.735C15.9863 48.0009 16.2272 47.9011 16.4049 47.7234C16.5826 47.5457 16.6824 47.3048 16.6824 47.0535V43.2632C16.6824 43.012 16.5826 42.771 16.4049 42.5933C16.2272 42.4157 15.9863 42.3158 15.735 42.3158H15.2014L20.8162 27.1575H25.209C25.4602 27.1574 25.7012 27.0576 25.8789 26.88C26.0565 26.7023 26.1563 26.4613 26.1564 26.2101V21.8166L41.3147 16.2025V16.7369C41.3147 16.9881 41.4145 17.2291 41.5922 17.4068C41.7699 17.5844 42.0108 17.6843 42.2621 17.6843H46.0517C46.3029 17.6843 46.5439 17.5844 46.7215 17.4068C46.8992 17.2291 46.999 16.9881 46.9991 16.7369V12.9465C46.999 12.6953 46.8992 12.4543 46.7215 12.2767C46.5439 12.099 46.3029 11.9992 46.0517 11.9991H42.2621ZM43.2095 13.8939H45.1043V15.7895H43.2095V13.8939ZM18.5772 19.5783H24.2616V25.2627H18.5772V19.5783ZM27.2244 27.2737C27.0673 27.2729 26.9124 27.3113 26.7737 27.3853C26.6351 27.4592 26.517 27.5665 26.4302 27.6975C26.3433 27.8285 26.2904 27.979 26.2762 28.1355C26.262 28.292 26.2869 28.4496 26.3488 28.5941L34.3876 47.3518C34.4633 47.5284 34.591 47.6778 34.7535 47.7801C34.9161 47.8825 35.106 47.933 35.298 47.925C35.4899 47.917 35.6749 47.8508 35.8284 47.7352C35.9819 47.6196 36.0966 47.4601 36.1573 47.2778L38.6871 39.6883L46.2767 37.1584C46.4587 37.0975 46.6179 36.9827 46.7332 36.8292C46.8485 36.6758 46.9145 36.491 46.9225 36.2992C46.9304 36.1074 46.8799 35.9177 46.7777 35.7553C46.6755 35.5928 46.5263 35.4653 46.3499 35.3895L27.593 27.3499C27.4765 27.3001 27.3511 27.2742 27.2244 27.2737ZM29.023 30.0248L43.3131 36.1496L37.6383 38.0407C37.4989 38.0873 37.3721 38.1658 37.2682 38.2698C37.1643 38.3739 37.086 38.5007 37.0396 38.6402L35.1478 44.315L29.023 30.0248ZM12.8928 44.2106H14.7876V46.1061H12.8928V44.2106Z" fill="#0648BF"/>
</svg>
