<svg width="60" height="60" viewBox="0 0 60 60" fill="none" xmlns="http://www.w3.org/2000/svg">
<circle cx="30.4998" cy="29.5" r="19.2576" fill="#E7F4FD"/>
<path d="M32.0538 28.2916H31.7086V21.8611H32.0538C33.478 21.8611 34.7296 22.8106 35.118 24.2348C35.2907 24.8822 35.9812 25.2706 36.6286 25.0979C37.2759 24.9253 37.6644 24.2348 37.4917 23.5874C36.8444 21.1274 34.6001 19.4443 32.0538 19.4443H31.7086V15.9916C31.7086 15.3011 31.1475 14.7832 30.5001 14.7832C29.8096 14.7832 29.2917 15.3443 29.2917 15.9916V19.4443H28.9465C27.4359 19.4443 26.0117 20.0485 24.9759 21.0843C23.897 22.1632 23.3359 23.5443 23.3359 25.0548C23.3359 28.1622 25.8823 30.7085 28.9896 30.7085H29.3349V37.0958H28.9896C27.5654 37.0958 26.3138 36.1464 25.9254 34.8085C25.7959 34.2474 25.3212 33.8158 24.717 33.8158C24.0265 33.8158 23.5086 34.3769 23.5086 35.0243C23.5086 35.1537 23.5086 35.24 23.5517 35.3695C24.2423 37.8295 26.4433 39.5127 28.9896 39.5127H29.3349V42.9653C29.3349 43.6558 29.8959 44.1737 30.5433 44.1737C31.2338 44.1737 31.7517 43.6127 31.7517 42.9653V39.5127H32.097C35.2044 39.5127 37.7507 36.9664 37.7507 33.859C37.7507 32.3485 37.1465 30.9243 36.1107 29.8885C34.9886 28.8527 33.5644 28.2916 32.0538 28.2916ZM28.9465 28.2916C27.177 28.2916 25.7528 26.8674 25.7528 25.0979C25.7528 24.2348 26.098 23.4148 26.6591 22.8537C27.2633 22.2495 28.0833 21.9043 28.9033 21.9043H29.2486V28.2916H28.9465ZM32.0538 37.139H31.7086V30.7085H32.0538C32.917 30.7085 33.6938 31.0537 34.298 31.6579C34.9023 32.2621 35.2044 33.039 35.2044 33.9022C35.2475 35.6716 33.8233 37.139 32.0538 37.139Z" fill="#0C8CE9"/>
<path d="M30.5 9C19.1926 9 10 18.1926 10 29.5C10 40.8074 19.1926 50 30.5 50C41.8074 50 51 40.8074 51 29.5C51 18.1926 41.8074 9 30.5 9ZM12.46 29.5C12.46 24.9684 14.1432 20.8253 16.9484 17.6316L20.0126 20.6958C20.2716 20.9547 20.5737 21.0411 20.8758 21.0411C21.1779 21.0411 21.48 20.9116 21.7389 20.6958C22.2137 20.2211 22.2137 19.4442 21.7389 18.9695L18.6747 15.9053C21.8684 13.1432 26.0116 11.4168 30.5432 11.4168C40.5126 11.4168 48.5832 19.5305 48.5832 29.4568C48.5832 33.9884 46.9 38.1316 44.0947 41.3253L41.0305 38.2611C40.5558 37.7863 39.7789 37.7863 39.3042 38.2611C38.8295 38.7358 38.8295 39.5126 39.3042 39.9874L42.3684 43.0516C39.1747 45.8137 35.0316 47.54 30.5 47.54C20.5305 47.54 12.46 39.4695 12.46 29.5Z" fill="#0648BF"/>
</svg>
