<svg width="27" height="27" viewBox="0 0 27 27" fill="none" xmlns="http://www.w3.org/2000/svg">
<rect width="27" height="27" rx="13.5" fill="#E7F4FD"/>
<path d="M9.75 19.75C9.40625 19.75 9.11208 19.6277 8.8675 19.3831C8.62292 19.1385 8.50042 18.8442 8.5 18.5V12.25C8.5 11.9062 8.6225 11.6121 8.8675 11.3675C9.1125 11.1229 9.40667 11.0004 9.75 11H10.375V9.75C10.375 8.88542 10.6798 8.14854 11.2894 7.53938C11.899 6.93021 12.6358 6.62542 13.5 6.625C14.3646 6.625 15.1017 6.92979 15.7113 7.53938C16.3208 8.14896 16.6254 8.88583 16.625 9.75V11H17.25C17.5938 11 17.8881 11.1225 18.1331 11.3675C18.3781 11.6125 18.5004 11.9067 18.5 12.25V18.5C18.5 18.8438 18.3777 19.1381 18.1331 19.3831C17.8885 19.6281 17.5942 19.7504 17.25 19.75H9.75ZM13.5 16.625C13.8438 16.625 14.1381 16.5027 14.3831 16.2581C14.6281 16.0135 14.7504 15.7192 14.75 15.375C14.75 15.0312 14.6277 14.7371 14.3831 14.4925C14.1385 14.2479 13.8442 14.1254 13.5 14.125C13.1562 14.125 12.8621 14.2475 12.6175 14.4925C12.3729 14.7375 12.2504 15.0317 12.25 15.375C12.25 15.7188 12.3725 16.0131 12.6175 16.2581C12.8625 16.5031 13.1567 16.6254 13.5 16.625ZM11.625 11H15.375V9.75C15.375 9.22917 15.1927 8.78646 14.8281 8.42188C14.4635 8.05729 14.0208 7.875 13.5 7.875C12.9792 7.875 12.5365 8.05729 12.1719 8.42188C11.8073 8.78646 11.625 9.22917 11.625 9.75V11Z" fill="#0C8CE9"/>
</svg>
